<svg width="52" height="40" viewBox="0 0 52 40" fill="none" xmlns="http://www.w3.org/2000/svg">
<path d="M11.6554 36.2596H6.23013L5.22177 38.7923H1.11914L6.48967 24.6684C6.5975 24.3832 6.78858 24.1377 7.03763 23.9644C7.28668 23.7911 7.58197 23.6982 7.88445 23.6981H11.095L16.7212 38.7923H12.5744L11.6554 36.2596ZM10.624 33.2728L8.94279 28.3849L7.30866 33.2728H10.624ZM16.9798 36.6836V23.701H22.0649C23.5674 23.701 26.0781 23.9038 28.0055 25.7824C29.7539 27.4796 30.0903 29.6523 30.0903 31.2815C30.0903 33.2728 29.5973 35.0379 28.14 36.5089C26.9519 37.7084 24.9582 38.7923 22.4013 38.7923H19.0677C18.514 38.7915 17.9833 38.5691 17.5918 38.1737C17.2005 37.7784 16.9803 37.2426 16.9798 36.6836ZM20.8585 35.4678H21.6428C22.5849 35.4678 23.9066 35.3775 24.9159 34.3819C25.4091 33.9064 26.0589 32.9564 26.0589 31.2815C26.0589 29.8784 25.633 28.679 24.8939 27.9774C23.9739 27.1176 22.7637 27.0275 21.7996 27.0275H20.8585V35.4678ZM30.098 38.7923L32.631 23.6991H36.4645L39.4905 30.4917L42.6963 23.6991H45.2916C45.6495 23.6987 45.9955 23.8283 46.2666 24.0639C46.5378 24.2995 46.7161 24.6257 46.7691 24.9828L48.8166 38.7923H44.9379L43.8402 30.1025L40.4258 36.3731C40.3327 36.5342 40.1993 36.6678 40.0391 36.7607C39.8789 36.8536 39.6973 36.9024 39.5126 36.9024C39.3278 36.9024 39.1463 36.8536 38.9861 36.7607C38.8258 36.6678 38.6925 36.5342 38.5994 36.3731L35.235 30.1074L33.9536 38.7923H30.098Z" fill="#94A3B8" fill-opacity="0.62"/>
<path d="M43.5788 1.14172H27.1183C20.0819 1.14172 14.0875 4.3556 11.6237 10.8697L8.37186 19.4663C8.16231 20.0194 8.59584 20.6376 9.19278 20.6376H25.9196C32.9069 20.6376 39.0089 16.4533 41.4553 9.98476L44.5236 2.48667C44.7601 1.85203 44.2651 1.14172 43.5788 1.14172ZM38.3562 8.61362C36.3626 13.8847 31.3939 17.2916 25.7004 17.2916H14.3845C15.6733 15.8076 17.2625 14.6197 19.0448 13.8084C20.827 12.9969 22.761 12.581 24.7161 12.5882H27.0077C28.8408 12.5882 31.4006 11.5073 32.0716 9.2366H24.5421C21.0035 9.21954 17.5491 10.3255 14.6671 12.3981L14.7382 12.2099C16.7396 6.91546 21.5795 4.49243 27.2951 4.49243H40.1462L38.3562 8.61362Z" fill="#94A3B8" fill-opacity="0.62"/>
<path d="M49.9211 24.6094C49.9243 24.5786 49.9187 24.5477 49.9051 24.5199C49.8915 24.4923 49.8704 24.4691 49.8442 24.4532C49.7965 24.4341 49.7453 24.4261 49.6942 24.4299H49.5365V24.7928H49.7442C49.768 24.7944 49.792 24.791 49.8145 24.7828C49.837 24.7746 49.8576 24.7618 49.875 24.7452C49.8911 24.7268 49.9036 24.7052 49.9115 24.6819C49.9194 24.6586 49.9226 24.634 49.9211 24.6094ZM49.9874 24.9781L50.2499 25.4632C50.2534 25.4694 50.2553 25.4765 50.2553 25.4836C50.2553 25.4909 50.2534 25.4978 50.2499 25.504C50.2468 25.5106 50.2419 25.5159 50.2356 25.5196C50.2295 25.5232 50.2223 25.5249 50.2152 25.5245H50.0229C50.0155 25.525 50.008 25.5231 50.0016 25.5191C49.9952 25.5151 49.9902 25.5091 49.9874 25.5021L49.7394 25.0305H49.5404V25.4827C49.5407 25.4882 49.5398 25.4938 49.5378 25.4989C49.5358 25.5042 49.5328 25.5088 49.5288 25.5128C49.5251 25.5166 49.5206 25.5196 49.5156 25.5216C49.5107 25.5236 49.5053 25.5246 49.5 25.5245H49.328C49.3226 25.5246 49.3173 25.5236 49.3124 25.5216C49.3074 25.5196 49.303 25.5166 49.2991 25.5128C49.2949 25.509 49.2917 25.5044 49.2895 25.4991C49.2874 25.4939 49.2864 25.4883 49.2866 25.4827V24.2367C49.2864 24.2311 49.2874 24.2255 49.2895 24.2202C49.2917 24.2151 49.2949 24.2104 49.2991 24.2067C49.303 24.2029 49.3074 24.1998 49.3124 24.1978C49.3173 24.1958 49.3226 24.1949 49.328 24.195H49.7048C49.787 24.1914 49.8692 24.2019 49.948 24.2261C50.0192 24.252 50.0795 24.3017 50.1191 24.3668C50.1621 24.4366 50.1841 24.5174 50.1826 24.5996C50.1837 24.6745 50.1648 24.7483 50.1278 24.8132C50.0939 24.8745 50.0422 24.9239 49.9797 24.9548L49.9874 24.9781ZM49.7336 23.9107C49.6077 23.9103 49.4831 23.936 49.3674 23.9864C49.1409 24.0816 48.961 24.2634 48.8666 24.4919C48.8172 24.6088 48.7917 24.7345 48.7917 24.8617C48.7917 24.9887 48.8172 25.1145 48.8666 25.2313C48.9613 25.46 49.1411 25.6418 49.3674 25.7379C49.4833 25.7872 49.6079 25.8126 49.7336 25.8126C49.8595 25.8126 49.9839 25.7872 50.0999 25.7379C50.3266 25.6422 50.5069 25.4602 50.6016 25.2313C50.6511 25.1145 50.6766 24.9887 50.6766 24.8617C50.6766 24.7345 50.6511 24.6088 50.6016 24.4919C50.5072 24.263 50.3268 24.0813 50.0999 23.9864C49.9845 23.9348 49.8598 23.9081 49.7336 23.9078V23.9107ZM50.8814 24.8617C50.8817 25.0164 50.8506 25.1697 50.7901 25.3119C50.7337 25.4502 50.6507 25.5759 50.546 25.6816C50.4411 25.7874 50.3166 25.8711 50.1797 25.9281C50.0389 25.9889 49.8873 26.0203 49.7341 26.0203C49.5809 26.0203 49.4294 25.9889 49.2886 25.9281C49.1518 25.8706 49.0276 25.7868 48.9223 25.6816C48.8182 25.5752 48.735 25.4497 48.6772 25.3119C48.6176 25.1696 48.5869 25.0166 48.5869 24.8621C48.5869 24.7077 48.6176 24.5547 48.6772 24.4123C48.7346 24.2744 48.8179 24.1488 48.9223 24.0427C49.0273 23.9367 49.1516 23.8527 49.2886 23.7952C49.4295 23.7351 49.5811 23.704 49.7341 23.704C49.8872 23.704 50.0387 23.7351 50.1797 23.7952C50.3166 23.8525 50.441 23.9365 50.5458 24.0425C50.6505 24.1483 50.7335 24.2741 50.7901 24.4123C50.8503 24.5533 50.8814 24.7052 50.8814 24.8587V24.8617Z" fill="#94A3B8" fill-opacity="0.62"/>
</svg>
