<svg width="160" height="40" viewBox="0 0 160 40" fill="none" xmlns="http://www.w3.org/2000/svg">
<g clip-path="url(#clip0_11_7881)">
<mask id="mask0_11_7881" style="mask-type:luminance" maskUnits="userSpaceOnUse" x="0" y="0" width="160" height="40">
<path d="M160 0H0V39.9053H160V0Z" fill="white"/>
</mask>
<g mask="url(#mask0_11_7881)">
<path d="M43.2541 0H0V6.64429H41.0947V6.64938C42.2832 6.64938 43.2387 7.61002 43.2387 8.79203V31.1157L43.2298 31.131C43.2198 32.313 42.2605 33.2621 41.0822 33.2621H8.7895C7.60621 33.2621 6.64176 32.3053 6.64176 31.1157V22.0933C6.64176 20.9088 7.60621 19.9507 8.7895 19.9507H36.5766V13.309H6.62522C2.96461 13.309 0 16.2697 0 19.9291V33.2787C0 36.9366 2.96461 39.9053 6.62522 39.9053H43.2541C46.9171 39.9053 49.8794 36.9366 49.8794 33.2787V6.62522C49.8794 2.96588 46.9171 0 43.2541 0Z" fill="#94A3B8" fill-opacity="0.62"/>
<path d="M74.5963 0.0124512L79.7915 15.5544C80.4136 17.4489 80.8462 17.8892 81.9326 17.8892H82.9928V20.6235H71.6456V17.8892H72.5732C73.5083 17.8892 74.2897 17.7632 74.2897 17.4222C74.2897 17.1092 74.2539 16.7682 74.1332 16.3038L73.4804 14.0632H67.1352L66.7649 15.3063C66.42 16.3942 66.298 16.8599 66.298 17.295C66.298 17.7976 67.3844 17.8904 68.228 17.8904H69.124V20.6248H59.9883V17.8892H61.043C62.131 17.8892 62.5649 17.4489 63.1908 15.5544L68.3822 0.0124512H74.5963ZM68.0296 11.3302H72.5451L70.3057 4.64133H70.2475L68.0296 11.3302Z" fill="#94A3B8" fill-opacity="0.62"/>
<path d="M84.7933 3.83592C84.7933 2.96307 84.5757 2.49993 83.6736 2.49993H82.2461V0.0124512H89.9565V7.75224C91.1031 6.44427 92.5661 5.60705 93.9632 5.60705C98.6263 5.60705 100.363 9.24728 100.363 13.3468C100.363 17.4489 98.6263 21.0828 93.9632 21.0828C92.0064 21.0828 90.2656 20.4034 89.1741 18.692L88.2746 20.6235H84.792L84.7933 3.83592ZM89.9565 13.3468C89.9565 16.5176 90.6691 18.416 92.4096 18.416C94.1539 18.416 94.8666 16.5176 94.8666 13.3468C94.8666 10.1761 94.1539 8.28411 92.4096 8.28411C90.6691 8.28411 89.9565 10.1761 89.9565 13.3468Z" fill="#94A3B8" fill-opacity="0.62"/>
<path d="M102.235 3.83592C102.235 2.96307 102.014 2.49993 101.118 2.49993H99.6865V0.0124512H107.398V7.75224C108.547 6.44427 110.009 5.60705 111.407 5.60705C116.068 5.60705 117.811 9.24728 117.811 13.3468C117.811 17.4489 116.068 21.0828 111.407 21.0828C109.446 21.0828 107.709 20.4034 106.616 18.692L105.716 20.6235H102.235V3.83592ZM107.397 13.3468C107.397 16.5176 108.113 18.416 109.85 18.416C111.593 18.416 112.307 16.5176 112.307 13.3468C112.307 10.1761 111.593 8.28411 109.85 8.28411C108.115 8.28411 107.397 10.1761 107.397 13.3468Z" fill="#94A3B8" fill-opacity="0.62"/>
<path d="M135.344 13.347C135.344 18.3207 131.954 21.083 127.322 21.083C122.687 21.083 119.298 18.3207 119.298 13.347C119.298 8.37201 122.687 5.60718 127.322 5.60718C131.954 5.60718 135.344 8.37201 135.344 13.347ZM124.803 13.347C124.803 17.0127 125.455 18.5993 127.322 18.5993C129.188 18.5993 129.841 17.0127 129.841 13.347C129.841 9.67873 129.188 8.09463 127.322 8.09463C125.455 8.09463 124.803 9.67873 124.803 13.347Z" fill="#94A3B8" fill-opacity="0.62"/>
<path d="M157.51 13.5976V16.024C157.51 17.4478 157.201 18.2927 156.017 18.2927C155.301 18.2927 154.961 17.7621 154.961 17.1081V8.55777H158.782V6.07537H154.961V0.29248H151.883C151.631 2.87156 150.826 6.07537 147.719 6.07537H142.869V0.29248H139.792C139.539 2.87156 138.733 6.07537 135.625 6.07537V8.55777H137.71V16.3637C137.71 19.5345 139.48 21.0829 142.68 21.0829C146.415 21.0829 147.902 19.4098 147.902 16.3637V13.5963H145.422V16.0227C145.422 17.4465 145.108 18.2914 143.926 18.2914C143.21 18.2914 142.87 17.7608 142.87 17.1068V8.55649H149.805V16.3624C149.805 19.5332 151.573 21.0817 154.774 21.0817C158.507 21.0817 160 19.4085 160 16.3624V13.5951H157.51" fill="#94A3B8" fill-opacity="0.62"/>
</g>
</g>
<defs>
<clipPath id="clip0_11_7881">
<rect width="160" height="40" fill="white"/>
</clipPath>
</defs>
</svg>
