<svg width="91" height="40" viewBox="0 0 91 40" fill="none" xmlns="http://www.w3.org/2000/svg">
<g clip-path="url(#clip0_11_7892)">
<mask id="mask0_11_7892" style="mask-type:luminance" maskUnits="userSpaceOnUse" x="0" y="0" width="91" height="40">
<path d="M91 0H0V39.9543H91V0Z" fill="white"/>
</mask>
<g mask="url(#mask0_11_7892)">
<path d="M44.615 1.078L34.2512 18.5819C33.1768 20.3576 32.6081 22.1967 32.4186 23.9726H28.374C28.6268 21.7528 29.5115 19.6599 31.2811 16.6158L38.5484 4.37582C40.0018 1.96589 41.4553 1.078 44.0462 1.078H44.615ZM43.7936 19.4697C43.0352 20.1673 41.5818 21.2454 40.3178 21.3088C39.4331 21.2454 39.4331 20.4843 40.0018 19.3428C42.2137 15.0937 44.4887 12.8741 47.3324 12.8741H47.838L43.7936 19.4697ZM47.6484 10.5275C42.4033 10.5275 39.1171 13.6351 36.2734 20.3576C35.5783 22.0699 35.1359 24.1627 37.6005 24.0993C38.9908 24.0993 41.329 23.3382 42.9087 22.1967C42.7824 22.7674 42.7193 23.5285 42.7824 23.9726H46.4477C46.574 22.5137 47.1428 20.738 48.3436 18.5183L53.0199 10.7812C51.2505 10.5909 49.4811 10.5275 47.6484 10.5275ZM81.8365 19.4697C81.0783 20.1673 79.6249 21.2454 78.3609 21.3088C77.4762 21.2454 77.4762 20.4843 78.0449 19.3428C80.2568 15.0937 82.5318 12.8741 85.3755 12.8741H85.8811L81.8365 19.4697ZM85.6283 10.5275C80.3831 10.5275 77.0971 13.6351 74.2533 20.3576C73.5581 22.0699 73.1158 24.1627 75.5803 24.0993C76.9706 24.0993 79.3087 23.3382 80.8887 22.1967C80.7624 22.7674 80.699 23.5285 80.7624 23.9726H84.4275C84.554 22.5137 85.1227 20.738 86.3234 18.5183L90.9999 10.7812C89.2303 10.5909 87.4609 10.5275 85.6283 10.5275Z" fill="#94A3B8" fill-opacity="0.62"/>
<path d="M73.6215 27.651H72.4209C70.8409 27.651 69.4507 26.5728 69.0715 25.0508L67.2388 18.0746L63.8263 23.8458H59.9084L70.9041 5.2004C72.2944 2.79047 73.8112 1.90259 76.4021 1.90259H76.7812L69.4506 14.2694L74.9487 10.4642H79.3722L70.1459 16.933L73.6215 27.651ZM37.3479 0C33.6194 0 31.7237 1.01471 28.0584 3.61492L15.7986 12.5571H7.89931C5.62431 12.5571 3.79166 12.6205 2.33819 14.0157L0.315972 15.9183C0.315972 15.9183 6.25625 15.6646 11.7542 15.4744L0 23.9726H5.11875L17.1257 15.2207C19.4638 15.1573 21.1069 15.0939 21.1069 15.0939C23.8875 15.0304 25.4674 12.5571 25.4674 12.5571H20.8541L30.5862 5.45408L23.3819 17.2501C21.8021 19.9772 21.1069 21.8798 20.8541 23.9726H25.025C25.2146 22.1969 25.7834 20.4212 26.8576 18.5819L36.7159 2.09284C37.4112 0.951293 37.9799 0 37.9799 0H37.3479ZM57.0013 14.2694C56.9382 14.6499 57.0646 14.8402 57.8229 15.2841L58.9604 16.0451C60.1612 16.8696 60.6666 18.0746 60.5403 19.0893C60.1612 21.8798 58.0757 24.0994 53.7784 24.0994C51.8826 24.0994 51.0612 24.036 48.7862 23.6555L50.4291 20.8016C52.009 21.0553 52.8937 21.2455 54.0312 21.1821C55.6743 21.1821 56.3062 20.4212 56.3694 19.8504C56.4326 19.4698 56.2431 19.0893 55.4847 18.5185L54.6 17.8843C53.1465 16.8696 52.7674 16.0451 52.9569 14.7768C53.3362 12.3034 56.1166 10.4642 60.0347 10.4642C61.2354 10.4642 62.6257 10.5277 64.0791 10.7179L62.5625 13.3815C61.6146 13.3181 60.0347 13.2547 58.8972 13.2547C57.8229 13.3181 57.0646 13.6986 57.0013 14.2694ZM88.725 21.4992C89.4201 21.4992 90.0521 22.07 90.0521 22.831C90.0521 23.5286 89.4834 24.1629 88.725 24.1629C88.0299 24.1629 87.4612 23.5921 87.4612 22.831C87.4612 22.1335 88.0299 21.4992 88.725 21.4992ZM88.725 23.8458C89.2937 23.8458 89.7362 23.4018 89.7362 22.7677C89.7362 22.1969 89.2937 21.6895 88.725 21.6895C88.1562 21.6895 87.7138 22.1335 87.7138 22.7677C87.7138 23.4018 88.1562 23.8458 88.725 23.8458ZM88.5987 23.5286H88.3459V22.1335H88.8513C89.1041 22.1335 89.3569 22.3237 89.3569 22.5774C89.3569 22.7677 89.2306 22.9578 89.0409 23.0214L89.3569 23.5921H89.0409L88.725 23.0847H88.5987V23.5286ZM88.7881 22.7677C88.9778 22.7677 89.0409 22.7043 89.0409 22.5774C89.0409 22.4506 88.9778 22.387 88.7881 22.387H88.5987V22.831H88.7881V22.7677ZM11.4382 37.6079H8.53125L7.9625 39.2568H6.50903L9.22638 32.0902H10.8694L13.5868 39.2568H12.0701L11.4382 37.6079ZM9.03681 36.3394H10.9958L9.98472 33.6124L9.03681 36.3394ZM18.516 39.2568V32.0902H19.9062V39.2568H18.516ZM28.0584 36.5297H27.3632V39.3202H25.9729V32.0902H28.7535C30.1437 32.0902 31.0284 33.0416 31.0284 34.31C31.0284 35.3247 30.4597 36.0857 29.5118 36.3394L31.0284 39.2568H29.4487L28.0584 36.5297ZM28.5007 35.3247C29.1959 35.3247 29.6382 34.9441 29.6382 34.31C29.6382 33.6758 29.1959 33.2953 28.5007 33.2953H27.3632V35.2614H28.5007V35.3247ZM36.6528 39.2568V32.0902H38.0431V37.9249H41.2028V39.2568H36.6528ZM46.6375 39.2568V32.0902H48.0278V39.2568H46.6375ZM58.7076 39.2568L55.4847 34.1832V39.2568H54.0944V32.0902H55.8007L58.7709 36.8468V32.0902H60.1612V39.2568H58.7076ZM66.2278 39.2568V32.0902H70.7146V33.4221H67.6181V35.071H70.3987V36.3394H67.6181V37.9883H70.7146V39.3202H66.2278V39.2568ZM80.0041 34.1832C79.941 33.8026 79.625 33.1684 78.6771 33.1684C77.9819 33.1684 77.5396 33.6124 77.5396 34.0563C77.5396 34.4369 77.7924 34.754 78.2979 34.8807L79.309 35.071C80.6362 35.3247 81.3312 36.1492 81.3312 37.1638C81.3312 38.242 80.3834 39.3836 78.7403 39.3836C76.8444 39.3836 76.0229 38.1786 75.8965 37.1638L77.1604 36.8468C77.2237 37.5445 77.7291 38.1786 78.7403 38.1786C79.4987 38.1786 79.8778 37.798 79.8778 37.2908C79.8778 36.8468 79.5618 36.5297 78.9931 36.4663L77.9819 36.276C76.8444 36.0223 76.0862 35.3247 76.0862 34.2466C76.0862 32.9783 77.2237 32.0268 78.5506 32.0268C80.2569 32.0268 80.9521 33.105 81.1416 33.8661L80.0041 34.1832Z" fill="#94A3B8" fill-opacity="0.62"/>
</g>
</g>
<defs>
<clipPath id="clip0_11_7892">
<rect width="91" height="40" fill="white"/>
</clipPath>
</defs>
</svg>
