<svg width="183" height="40" viewBox="0 0 183 40" fill="none" xmlns="http://www.w3.org/2000/svg">
<g clip-path="url(#clip0_11_7879)">
<path fill-rule="evenodd" clip-rule="evenodd" d="M179.703 34.033H179.264V35.0591H179.677C180.055 35.0591 180.29 34.8973 180.29 34.546C180.29 34.208 180.082 34.033 179.703 34.033ZM180.592 37.0169L179.589 35.5323H179.264V36.9641H178.688V33.4934H179.703C180.407 33.4934 180.875 33.8555 180.875 34.505C180.875 35.0047 180.616 35.3283 180.199 35.4647L181.163 36.8819L180.592 37.0169ZM179.717 32.5627C178.31 32.5627 177.192 33.5598 177.192 35.3439C177.192 37.1101 178.31 38.1109 179.717 38.1109C181.138 38.1109 182.257 37.1101 182.257 35.3439C182.257 33.5598 181.126 32.5627 179.717 32.5627ZM179.717 38.4764C177.976 38.4764 176.763 37.2188 176.763 35.3439C176.763 33.4789 177.998 32.1933 179.717 32.1933C181.463 32.1933 182.673 33.4644 182.673 35.3439C182.673 37.2089 181.435 38.4764 179.717 38.4764ZM27.0361 21.9531H18.0462C18.606 21.0284 27.0361 6.81667 27.0361 6.81667V21.9531ZM23.1979 0.461046L0.402344 38.4742H8.15217C8.15217 38.4742 13.7734 29.0113 13.9672 28.6878H27.0481L27.0529 38.4789L34.409 38.4778V0.459839H23.1979V0.461046ZM39.6271 0.459839V38.4789H46.7762V0.461046L39.6271 0.459839ZM51.9796 0.459839H59.1177V38.4789H51.9796V0.459839ZM74.8509 20.5238C70.9622 19.4712 70.1493 18.8797 70.2518 17.2006C70.3359 15.6771 71.5317 14.8007 73.5289 14.8007C75.9994 14.8007 79.02 15.7037 81.6157 17.215L82.0252 17.4577L83.0087 11.1141L82.7763 10.9994C80.1107 9.73796 76.9203 9.06559 73.5289 9.06559C70.2649 9.06559 67.4899 10.111 65.6973 12.0038C64.279 13.5139 63.5507 15.4683 63.588 17.6399C63.7121 23.5018 66.4051 25.1605 72.7848 26.8613C77.0034 27.9405 77.8594 28.5815 77.8294 30.6675C77.8053 32.5434 76.7267 33.2508 73.8576 33.2508C70.8575 33.2508 67.4742 32.104 64.5389 30.1134L64.1128 29.82L63.1221 36.1878L63.3351 36.3085C65.62 37.6122 69.5245 38.981 73.6409 38.981C77.6307 38.981 80.577 38.0008 82.3997 36.09C83.8201 34.5907 84.5184 32.5639 84.4859 30.0482C84.3933 23.7529 81.3317 22.2573 74.8509 20.5238ZM101.847 32.0714L101.477 32.174C100.986 32.314 100.365 32.3852 99.516 32.3852C97.3972 32.3852 96.4123 31.3942 96.4123 29.2503V15.7906H101.654L101.751 9.60034H96.4123V0.459839H89.3811V9.60034H85.7094V15.7894H89.3811V30.3717C89.3811 36.1431 92.2875 38.9667 98.2797 38.9667C100.213 38.9667 101.398 38.7384 102.452 38.5006L102.773 38.4367L101.847 32.0714ZM114.592 33.2508C112.833 33.2508 111.744 32.1318 111.744 30.3367C111.744 27.139 114.717 25.0494 120.349 24.2648V30.5274C118.601 32.2983 116.616 33.2508 114.592 33.2508ZM117.061 9.00522C112.616 9.00522 109.26 10.1279 106.59 11.2143L106.338 11.3169L107.254 17.4142L107.654 17.2319C110.857 15.7628 113.569 15.0772 116.21 15.0772C119.025 15.0772 120.349 16.2855 120.349 18.8881V19.6341C109.793 20.7604 104.653 24.4965 104.653 31.0586C104.653 35.9065 107.681 39.0353 112.378 39.0353C115.628 39.0353 118.328 37.8041 120.815 35.2957C120.95 36.1358 121.312 38.4753 121.312 38.4753H127.489V18.6902C127.489 12.0907 124.177 9.00522 117.061 9.00522ZM145.823 32.0714L145.46 32.174C144.971 32.314 144.34 32.3852 143.506 32.3852C141.38 32.3852 140.383 31.3942 140.383 29.2503V15.7906H145.636L145.732 9.60034H140.383V0.459839H133.34V9.60034H129.686V15.7894H133.34V30.3717C133.34 36.1431 136.265 38.9667 142.261 38.9667C144.189 38.9667 145.429 38.7278 146.433 38.5006L146.746 38.4367L145.823 32.0714ZM155.036 20.8691C155.358 16.7286 157.095 14.3493 159.84 14.3493C163.536 14.3493 164.516 17.8053 164.662 20.8691H155.036ZM170.333 29.8466C167.136 32.1474 164.521 33.1385 161.565 33.1385C157.727 33.1385 155.344 30.4442 154.935 25.7568H171.593L171.666 23.7819C171.666 13.9968 167.745 9.01972 160.001 9.00643C156.599 8.99557 153.809 10.1025 151.708 12.2863C149.15 14.9239 147.797 19.0294 147.797 24.1187C147.797 33.3292 152.817 39.0353 160.862 39.0353C164.792 39.0353 168.357 37.8995 171.465 35.6795L171.641 35.5588L170.774 29.5231L170.333 29.8466Z" fill="#94A3B8" fill-opacity="0.62"/>
</g>
<defs>
<clipPath id="clip0_11_7879">
<rect width="183" height="40" fill="white"/>
</clipPath>
</defs>
</svg>
