<svg width="274" height="40" viewBox="0 0 274 40" fill="none" xmlns="http://www.w3.org/2000/svg">
<path d="M34.8583 38.0812V0H43.5332V38.0812H34.8583ZM203.49 23.8536C203.49 14.6507 196.349 8.93847 187.991 8.93847C179.581 8.93847 172.493 14.7036 172.493 23.8536C172.493 33.0565 179.634 38.8216 187.991 38.8216C196.349 38.8216 203.49 33.0037 203.49 23.8536ZM194.921 23.8536C194.921 28.6666 191.694 31.3641 187.939 31.3641C184.183 31.3641 180.956 28.6666 180.956 23.8536C180.956 18.9877 184.183 16.3961 187.939 16.3961C191.694 16.3961 194.921 18.9877 194.921 23.8536ZM31.3672 27.1328C31.3672 22.8487 29.1455 19.5695 25.1784 18.0885C28.934 16.0258 30.2564 13.3284 30.2564 10.155C30.2564 4.60147 26.2363 0 17.244 0.0528905H0V38.134H17.9845C27.0297 38.0811 31.3672 33.5854 31.3672 27.1328ZM21.0525 11.2656C21.0525 13.8573 19.4127 15.3382 16.239 15.3382H9.04518V7.40466H16.239C19.1483 7.40466 21.0525 8.67403 21.0525 11.2656ZM21.846 26.551C21.846 29.0369 20.1004 30.6765 16.8737 30.6765H9.04518V22.4255H16.8737C19.9946 22.4255 21.846 24.0123 21.846 26.551ZM106.902 16.7134C104.522 11.7417 100.078 8.9914 93.3611 8.9914C85.4266 8.9914 78.3388 13.9631 78.3388 23.8536C78.3388 33.4797 84.5805 38.8216 93.2553 38.8216C99.3381 38.8216 104.469 36.3887 106.902 31.1525L99.9201 27.5559C98.6504 29.8831 96.6935 31.3641 93.5726 31.3641C89.5525 31.3641 86.9605 28.5079 86.9605 23.8536C86.9605 19.1992 89.923 16.3961 93.5195 16.3961C96.3231 16.3961 98.4389 17.6654 99.7612 20.4157L106.902 16.7134ZM234.751 16.7134C232.371 11.7417 227.928 8.9914 221.21 8.9914C213.276 8.9914 206.188 13.9631 206.188 23.8536C206.188 33.4797 212.429 38.8216 221.104 38.8216C227.187 38.8216 232.318 36.3887 234.751 31.1525L227.769 27.5559C226.499 29.8831 224.542 31.3641 221.422 31.3641C217.401 31.3641 214.809 28.5079 214.809 23.8536C214.809 19.1992 217.772 16.3961 221.368 16.3961C224.172 16.3961 226.288 17.6654 227.61 20.4157L234.751 16.7134ZM162.019 38.0812L154.773 25.2816H149.219V38.0812H140.28V0H156.413C165.14 0 171.224 4.17835 171.224 12.3764C171.224 17.6125 168.632 21.3148 164.03 23.5892L172.387 38.0812H162.019ZM149.272 17.7183H155.937C160.063 17.7183 162.073 15.3911 162.073 12.6408C162.073 9.36159 160.168 7.56334 155.937 7.56334H149.272V17.7183ZM76.9102 37.6051V31.6285C76.5403 31.7343 76.0114 31.8401 75.4295 31.8401C74.3187 31.8401 73.7367 31.2582 73.7367 30.2534V20.3628C73.7367 12.9581 68.7647 9.04427 60.5655 9.04427C55.2231 9.04427 50.6741 11.0012 47.8178 13.5399L52.6313 18.9348C54.5355 17.2423 57.0747 16.1845 59.5605 16.1845C63.3691 16.1845 65.1676 18.0885 65.1676 21.2091V22.1082C63.3691 21.6851 61.0943 21.262 58.3439 21.262C51.4147 21.262 46.9186 24.5941 46.9186 30.0947C46.9186 35.754 50.6741 38.7158 56.4928 38.7158C60.4597 38.7158 64.0037 37.0762 65.8554 34.9606C66.9661 37.7638 69.3993 38.5043 71.7798 38.5043C73.4194 38.5572 75.3237 38.2927 76.9102 37.6051ZM65.2202 28.6666C65.2202 31.2582 62.7345 32.9507 59.8778 32.9507C57.1805 32.9507 55.8576 31.5756 55.8576 29.6716C55.8576 27.6617 57.3389 26.1808 60.354 26.1808C62.2057 26.1808 63.8453 26.4981 65.2202 26.8155V28.6666ZM265.748 38.0812L255.54 20.3628L265.114 9.9434H255.486L245.383 21.1562V0.0528905H236.761V38.134H245.383V31.2582L249.509 26.8684L255.963 38.134H265.748V38.0812ZM138.005 38.0812L127.796 20.3628L137.37 9.9434H127.637L117.64 21.1562V0.0528905H109.018V38.134H117.64V31.2582L121.766 26.8684L128.219 38.134H138.005V38.0812ZM271.038 32.7921C272.836 32.7921 273.894 33.9028 273.894 35.5953C273.894 37.2878 272.836 38.3985 271.038 38.3985C269.24 38.3985 268.181 37.2878 268.181 35.5953C268.181 33.9028 269.24 32.7921 271.038 32.7921ZM271.038 38.0283C272.466 38.0283 273.418 37.182 273.418 35.5953C273.418 34.0085 272.413 33.1623 271.038 33.1623C269.609 33.1623 268.658 34.0085 268.658 35.5953C268.604 37.2349 269.609 38.0283 271.038 38.0283ZM269.927 34.1672H271.091C271.778 34.1672 272.149 34.5375 272.149 35.0664C272.149 35.5424 271.937 35.8068 271.567 35.9655L272.096 36.9704H271.567L271.091 36.0713H270.456V36.9704H269.927V34.1672ZM270.456 34.5904V35.5953H271.038C271.408 35.5953 271.619 35.4895 271.619 35.1193C271.619 34.8019 271.461 34.6432 271.091 34.6432H270.456V34.5904Z" fill="#94A3B8" fill-opacity="0.62"/>
</svg>
