<svg width="130" height="40" viewBox="0 0 130 40" fill="none" xmlns="http://www.w3.org/2000/svg">
<g clip-path="url(#clip0_11_7915)">
<mask id="mask0_11_7915" style="mask-type:luminance" maskUnits="userSpaceOnUse" x="0" y="0" width="130" height="40">
<path d="M130 0H0V39.9997H130V0Z" fill="white"/>
</mask>
<g mask="url(#mask0_11_7915)">
<mask id="mask1_11_7915" style="mask-type:luminance" maskUnits="userSpaceOnUse" x="-236" y="-14" width="383" height="494">
<path d="M-235.842 -13.3904H146.086V479.875H-235.842V-13.3904Z" fill="white"/>
</mask>
<g mask="url(#mask1_11_7915)">
<path fill-rule="evenodd" clip-rule="evenodd" d="M120.816 29.7681C120.128 29.2445 119.655 28.4032 119.63 27.4676C119.372 28.1201 118.848 28.7123 118.281 29.0556C117.662 28.4292 117.413 27.6221 117.508 26.6866C117.19 27.339 116.631 27.7424 115.944 28.0255C115.54 27.4076 115.351 26.592 115.48 25.7853C115.041 26.3175 114.474 26.6523 113.822 26.7811C113.572 26.1886 113.478 25.5364 113.633 24.9098C112.67 25.7252 111.45 25.4419 111.33 25.4419C112.515 24.4462 113.289 23.0471 113.443 21.4248C113.443 21.4248 115.102 23.6651 119.097 24.9784C119.192 24.7896 120.558 22.9784 120.996 20.3948C123.213 24.884 121.125 29.1759 120.816 29.7681ZM128.084 3.80264H128.926C128.952 5.66529 127.552 6.6009 127.053 6.78973H127.397C127.363 8.53222 125.988 9.24466 125.49 9.24466C125.808 10.5837 124.184 11.4592 124.055 11.5193C123.496 14.515 120.687 15.6051 119.965 15.7596C120.901 19.2102 119.716 22.266 118.693 23.8196C115.351 22.7295 112.696 19.8712 111.665 16.2832C111.39 15.4764 110.608 14.824 109.551 14.5751C108.864 14.4206 108.271 14.103 107.858 13.6738C107.515 13.3305 106.991 13.0472 106.398 12.927C106.209 12.9041 105.988 12.8927 105.736 12.8927C105.676 12.8927 99.6872 13.2618 99.6872 13.2618C99.6242 13.2618 99.5928 13.2332 99.5928 13.1759C99.5928 13.1416 99.6271 13.0815 99.6872 13.0815L106.149 12.2661C107.36 12.0172 108.202 11.3648 108.58 10.5579C108.984 9.62233 110.144 8.93565 111.51 8.93565C111.699 8.93565 111.888 8.93565 112.043 8.93565C113.607 9.0644 115.067 9.58799 116.322 10.4635C117.757 9.68243 119.252 8.74679 120.816 7.69103C124.897 4.95284 128.205 2.12025 129.889 0.0601807C130.482 1.87132 128.394 3.57947 128.084 3.80264ZM115.849 9.0644C114.973 8.53222 114.036 8.18887 113.039 8.00004C113.607 5.63952 113.916 3.57947 113.976 2.05158C114.663 2.36917 115.136 3.51939 115.041 4.89277C115.007 5.35627 114.913 5.7597 114.792 6.13739C114.81 6.13739 114.83 6.13739 114.852 6.13739C115.54 6.19747 116.073 7.15884 115.978 8.28329C115.955 8.55225 115.912 8.81261 115.849 9.0644Z" fill="#94A3B8" fill-opacity="0.62"/>
<path fill-rule="evenodd" clip-rule="evenodd" d="M18.336 18.6523H18.3703V21.7338L18.2157 21.5793C16.4027 19.8025 13.9711 18.781 11.5653 18.781C6.66776 18.781 2.51772 23.0128 2.51772 28.0256C2.51772 33.0385 6.70213 37.2788 11.5997 37.2788C13.9368 37.2788 16.3426 36.2487 18.2157 34.4375L18.3703 34.3175V37.3645L18.336 37.3988C16.3769 38.7723 14.0313 39.5448 11.6942 39.5448C8.63536 39.5448 5.73121 38.3689 3.51443 36.2144C1.27185 34.0341 0.0517578 31.1414 0.0517578 28.1201C0.0517578 21.708 5.26722 16.472 11.6942 16.472C14.1859 16.472 16.3769 17.1931 18.336 18.6523ZM27.3923 20.4634L35.3743 39.0469H33.0028C33.0028 39.0469 31.0094 34.1887 30.9493 34.1027H23.6116C23.5858 34.1887 21.4893 39.0469 21.4893 39.0469H19.178L27.2976 20.6437L27.3923 20.4634ZM24.488 32.1113H30.1332C30.0385 31.8967 27.4866 25.8196 27.3577 25.4505C27.2032 25.8196 24.5825 31.8967 24.488 32.1113ZM53.0657 20.2488L56.6917 39.0554H54.5092C54.5092 39.0554 52.3868 27.7853 52.2925 27.3819C52.1378 27.751 46.6731 39.8967 46.6731 39.8967C46.6731 39.8967 41.2084 27.751 41.0537 27.3819C40.9936 27.7853 38.8369 39.0554 38.8369 39.0554H36.6545L40.2461 20.5321L40.2805 20.2488C40.2805 20.2488 46.5184 34.5749 46.6731 34.944C46.8278 34.5749 53.0657 20.2488 53.0657 20.2488ZM72.106 30.2744C72.106 32.8926 71.1092 35.1671 69.2361 36.8494C67.1398 38.6863 65.0174 39.0554 62.2765 39.0554H58.9342V21.4334H62.3022C64.9573 21.4334 67.114 21.8025 69.2018 23.5793C71.1092 25.2016 72.106 27.5362 72.106 30.2744ZM69.9836 30.2401C69.9836 28.223 69.1675 26.3175 67.7669 25.0728C66.1772 23.708 64.4589 23.4248 62.3968 23.4248H61.0563V37.0643H62.3968C64.519 37.0643 66.2719 36.7809 67.8269 35.2874C69.2361 34.0084 69.9836 32.2058 69.9836 30.2401ZM83.6196 21.4334V23.4248H76.5052V28.4375H83.396V30.4032H76.5052V37.0643H83.6196V39.0554H74.3828V21.4334H83.6196ZM102.617 21.4334V39.9567C102.617 39.9567 89.299 26.0684 88.9811 25.7595V39.0554H86.8673V20.5578C86.8673 20.5578 100.185 34.5063 100.503 34.8237V21.4334H102.617ZM104.825 38.4632V38.5235C104.825 38.7809 105.014 38.8666 105.169 38.8666C105.358 38.8666 105.512 38.7809 105.512 38.5578C105.512 38.1198 104.645 38.1544 104.645 37.5619C104.645 37.2185 104.894 37.0297 105.238 37.0297C105.581 37.0297 105.796 37.2185 105.762 37.6222H105.512C105.512 37.4074 105.452 37.2531 105.203 37.2531C105.049 37.2531 104.894 37.3474 104.894 37.5276C104.894 37.9653 105.796 37.9053 105.796 38.5578C105.796 38.9611 105.487 39.09 105.169 39.09C104.576 39.09 104.576 38.652 104.576 38.4632H104.825ZM106.234 39.0554H106.011V37.0643H106.423L106.922 38.7466L107.42 37.0643H107.858V39.0554H107.609V37.2788H107.574L107.042 39.0554H106.793L106.26 37.2788H106.234V39.0554Z" fill="#94A3B8" fill-opacity="0.62"/>
</g>
</g>
</g>
<defs>
<clipPath id="clip0_11_7915">
<rect width="130" height="40" fill="white"/>
</clipPath>
</defs>
</svg>
