<svg width="204" height="40" viewBox="0 0 204 40" fill="none" xmlns="http://www.w3.org/2000/svg">
<g clip-path="url(#clip0_11_7905)">
<mask id="mask0_11_7905" style="mask-type:luminance" maskUnits="userSpaceOnUse" x="0" y="0" width="204" height="40">
<path d="M204 0H0V39.8213H204V0Z" fill="white"/>
</mask>
<g mask="url(#mask0_11_7905)">
<path d="M50.5644 19.966V19.9115C50.535 18.6134 50.7676 17.3227 51.249 16.117C51.7304 14.9111 52.4501 13.815 53.3653 12.8944C54.2804 11.9737 55.3722 11.2475 56.5746 10.7593C57.7774 10.2711 59.0663 10.031 60.3641 10.0534C61.7493 9.9992 63.1308 10.2352 64.4201 10.7464C65.7089 11.2575 66.8766 12.0325 67.8489 13.0216L65.6987 15.4994C65.0035 14.7747 64.1716 14.1946 63.2515 13.7927C62.3311 13.3907 61.3405 13.1748 60.3368 13.1574C56.7431 13.1574 54.0752 16.1255 54.0752 19.8562V19.9107C54.0752 23.6421 56.7158 26.6641 60.3641 26.6641C62.7052 26.6641 64.2022 25.7379 65.835 24.2136L67.9852 26.392C67.028 27.4934 65.8374 28.3679 64.5004 28.9519C63.1634 29.536 61.713 29.815 60.2548 29.7687C58.9684 29.7858 57.6917 29.5432 56.5012 29.0552C55.3106 28.5672 54.2307 27.8441 53.3261 26.9289C52.4212 26.0137 51.7104 24.9254 51.2359 23.729C50.7614 22.5326 50.533 21.2527 50.5644 19.966ZM72.9175 19.966V19.9115C72.9411 17.2884 73.9974 14.7805 75.8575 12.9315C77.7172 11.0825 80.2309 10.0415 82.8531 10.0343C85.4749 10.0272 87.9943 11.0543 89.8642 12.8931C91.7344 14.7319 92.8042 17.2341 92.8422 19.857V19.9115C92.8185 22.5345 91.7622 25.0425 89.9025 26.8915C88.0424 28.7405 85.5288 29.7814 82.9069 29.7886C80.2847 29.7958 77.7653 28.7686 75.8955 26.9299C74.0256 25.091 72.9554 22.5889 72.9175 19.966ZM89.3313 19.966V19.9115C89.3644 19.0387 89.2212 18.1681 88.9107 17.3518C88.6002 16.5354 88.1285 15.79 87.5243 15.1598C86.9196 14.5296 86.1946 14.0276 85.3917 13.6837C84.5891 13.3398 83.7258 13.1611 82.8527 13.1581C79.0689 13.1581 76.4291 16.1535 76.4291 19.857V19.9115C76.3965 20.7843 76.5393 21.6548 76.8498 22.4712C77.1603 23.2875 77.6319 24.033 78.2366 24.6632C78.8408 25.2934 79.5662 25.7954 80.3688 26.1392C81.1713 26.4832 82.0346 26.6619 82.9078 26.6649C86.6907 26.6649 89.3313 23.6694 89.3313 19.966ZM102.938 13.4848H96.8671V10.3801H112.355V13.4846H106.286V29.442H102.938V13.4848ZM118.621 10.3801H132.748V13.3755H121.969V18.3318H131.524V21.3552H121.969V26.4472H132.884V29.4427H118.621V10.3801ZM192.513 10.2437H195.617L204 29.4414H200.462L198.529 24.8392H189.519L187.56 29.4414H184.13L192.513 10.2437ZM197.305 21.8708L194.01 14.2456L190.744 21.8708H197.305ZM151.108 22.2255C153.748 21.463 155.626 19.5848 155.626 16.4521V16.3983C155.665 14.8726 155.098 13.3937 154.048 12.2863C152.536 10.9537 150.561 10.269 148.549 10.3801H140.058V29.442H143.406V13.4303H148.279C150.756 13.4303 152.226 14.5467 152.226 16.5886V16.6424C152.226 18.5759 150.701 19.829 148.305 19.829H145.504L147.595 22.7971L152.278 29.4421H156.252L151.108 22.2255ZM174.516 22.2255C177.156 21.463 179.035 19.5848 179.035 16.4521V16.3983C179.073 14.8725 178.506 13.3936 177.456 12.2863C175.944 10.9537 173.969 10.2691 171.957 10.3801H163.464V29.442H166.812V13.4303H171.685C174.161 13.4303 175.632 14.5467 175.632 16.5886V16.6424C175.632 18.5759 174.108 19.829 171.713 19.829H168.911L171.003 22.7971L175.685 29.4421H179.658L174.516 22.2255Z" fill="#94A3B8" fill-opacity="0.62"/>
<path d="M16.3947 29.9248C19.9979 31.2405 23.9316 31.345 27.5994 30.2224C31.2672 29.1 34.4692 26.8116 36.7199 23.7045C37.4921 19.7642 36.8974 15.6781 35.034 12.1217C33.1705 8.56531 30.1499 5.75139 26.4713 4.14502L23.4786 11.0311C25.8442 12.0692 27.7222 13.9747 28.7264 16.3557C29.7306 18.7367 29.7846 21.4121 28.8772 23.8317C27.9698 26.2513 26.1701 28.231 23.8483 29.3637C21.5264 30.4964 18.859 30.6959 16.3945 29.9212L16.3947 29.9248Z" fill="#94A3B8" fill-opacity="0.62"/>
<path d="M36.72 23.705C34.4374 26.8567 31.177 29.1646 27.4466 30.2693C23.7161 31.374 19.7253 31.2133 16.0956 29.8124L15.4255 29.5617L10.9658 39.8216L16.4738 37.6514C21.0006 38.4319 25.653 37.4099 29.4365 34.8037C33.2199 32.1975 35.834 28.2141 36.72 23.705Z" fill="#94A3B8" fill-opacity="0.62"/>
<path d="M20.6541 9.89629C17.051 8.58062 13.1173 8.47609 9.44948 9.59858C5.78165 10.721 2.57965 13.0093 0.328975 16.1164C-0.442627 20.0564 0.152432 24.1418 2.01583 27.6976C3.87923 31.2534 6.89944 34.0669 10.5775 35.6732L13.5703 28.7871C11.203 27.7501 9.32317 25.8446 8.31781 23.4629C7.31242 21.0813 7.25799 18.4047 8.16571 15.984C9.07343 13.5634 10.8742 11.5831 13.1974 10.4506C15.5206 9.31813 18.1891 9.11976 20.6541 9.89629Z" fill="#94A3B8" fill-opacity="0.62"/>
<path d="M0.329102 16.1166C2.61169 12.9649 5.87217 10.657 9.60259 9.55233C13.333 8.44763 17.3239 8.60829 20.9536 10.0092L21.6236 10.2599L26.0833 0L20.5753 2.17022C16.6924 1.50849 12.6998 2.16648 9.23421 4.03925C5.76862 5.91204 3.02962 8.89171 1.45403 12.5032C0.950428 13.6638 0.573272 14.8752 0.329102 16.1166Z" fill="#94A3B8" fill-opacity="0.62"/>
</g>
</g>
<defs>
<clipPath id="clip0_11_7905">
<rect width="204" height="40" fill="white"/>
</clipPath>
</defs>
</svg>
